<?xml version="1.0" encoding="utf-8"?>
<!-- Generator: Adobe Illustrator 16.0.0, SVG Export Plug-In . SVG Version: 6.00 Build 0)  -->
<!DOCTYPE svg PUBLIC "-//W3C//DTD SVG 1.1//EN" "http://www.w3.org/Graphics/SVG/1.1/DTD/svg11.dtd">
<svg version="1.1" id="katman_1" xmlns="http://www.w3.org/2000/svg" xmlns:xlink="http://www.w3.org/1999/xlink" x="0px" y="0px"
	 width="21px" height="21px" viewBox="0 0 21 21" enable-background="new 0 0 21 21" xml:space="preserve">
<g>
	<path fill="#29337A" d="M1.857,4.529c-0.68,0.987-1.197,2.095-1.51,3.285h4.795L1.857,4.529z"/>
	<path fill="#29337A" d="M7.589,0.383C6.375,0.737,5.25,1.301,4.259,2.037l3.33,3.33V0.383z"/>
	<path fill="#29337A" d="M4.507,19.144c0.929,0.649,1.967,1.152,3.083,1.478v-4.56L4.507,19.144z"/>
	<path fill="#29337A" d="M0.468,13.614c0.348,1.13,0.882,2.178,1.564,3.108l3.108-3.108H0.468z"/>
</g>
<g>
	<path fill="#FFFFFF" d="M2.031,4.285C1.972,4.365,1.914,4.447,1.856,4.529l3.285,3.286H0.347C0.269,8.11,0.206,8.412,0.153,8.718
		h6.311L2.031,4.285z"/>
	<path fill="#FFFFFF" d="M4.262,18.97c0.081,0.06,0.163,0.117,0.245,0.174l3.083-3.082v4.56c0.296,0.087,0.597,0.162,0.902,0.222
		v-6.104L4.262,18.97z"/>
	<path fill="#FFFFFF" d="M0.233,12.712c0.066,0.307,0.143,0.608,0.234,0.902h4.673l-3.108,3.108
		c0.338,0.463,0.713,0.896,1.121,1.296l5.307-5.307H0.233L0.233,12.712z"/>
	<path fill="#FFFFFF" d="M7.589,0.383v4.984l-3.33-3.33C3.8,2.378,3.371,2.758,2.974,3.168l5.518,5.519V0.162
		C8.186,0.222,7.886,0.297,7.589,0.383z"/>
</g>
<g>
	<polygon fill="#D32030" points="7.589,13.583 7.558,13.614 7.589,13.614 	"/>
	<polygon fill="#D32030" points="8.46,12.712 8.492,12.712 8.492,12.681 	"/>
	<polygon fill="#D32030" points="12.517,8.718 12.486,8.718 12.486,8.748 	"/>
	<polygon fill="#D32030" points="7.621,7.815 7.589,7.784 7.589,7.815 	"/>
	<polygon fill="#D32030" points="8.492,8.687 8.492,8.718 8.523,8.718 	"/>
</g>
<g>
	<path fill="#252F6C" d="M13.39,18.288v2.363c1.129-0.316,2.182-0.814,3.125-1.465l-2.561-2.56
		C13.749,17.346,13.674,17.717,13.39,18.288z"/>
	<path fill="#252F6C" d="M13.968,4.789l2.795-2.795c-1.005-0.735-2.144-1.296-3.373-1.641v2.428
		C13.719,3.439,13.746,3.939,13.968,4.789z"/>
	<path fill="#252F6C" d="M19.007,16.785c0.704-0.947,1.253-2.017,1.608-3.171h-4.778L19.007,16.785z"/>
	<path fill="#252F6C" d="M20.736,7.815c-0.321-1.216-0.852-2.345-1.554-3.347l-3.347,3.347H20.736z"/>
</g>
<g>
	<path fill="#E7E7E7" d="M14.583,12.891l0.725,0.724l3.467,3.468c0.078-0.098,0.156-0.196,0.232-0.297l-3.17-3.171h4.778
		c0.092-0.294,0.169-0.596,0.233-0.901H14.65C14.64,12.841,14.595,12.763,14.583,12.891z"/>
	<path fill="#E7E7E7" d="M13.857,5.317L17,2.174c-0.078-0.061-0.157-0.122-0.237-0.181l-2.795,2.795
		C13.996,4.899,13.831,5.204,13.857,5.317z"/>
	<path fill="#E7E7E7" d="M13.39,2.586V0.353c-0.296-0.083-0.597-0.153-0.903-0.21v1.089C12.822,1.597,13.124,2.054,13.39,2.586z"/>
	<path fill="#E7E7E7" d="M14.512,8.718h6.417c-0.052-0.306-0.114-0.607-0.192-0.903h-4.9l3.347-3.347
		c-0.329-0.47-0.693-0.912-1.094-1.321l-3.77,3.769C14.421,7.6,14.467,7.997,14.512,8.718z"/>
	<path fill="#E7E7E7" d="M13.801,16.474l2.714,2.713c0.45-0.31,0.875-0.656,1.272-1.031l-3.567-3.569
		C14.104,15.246,13.97,15.884,13.801,16.474z"/>
	<path fill="#E7E7E7" d="M12.486,19.647v1.215c0.307-0.058,0.607-0.128,0.903-0.211v-2.363
		C13.124,18.82,12.822,19.284,12.486,19.647z"/>
</g>
<path fill="#D71F28" d="M14.319,6.916l3.769-3.769C17.75,2.798,17.386,2.473,17,2.174l-2.962,2.962
	C14.17,5.688,14.23,6.317,14.319,6.916z"/>
<g>
	<path fill="#D32030" d="M10.015-0.026c0.176-0.009,0.351-0.013,0.527-0.013C10.365-0.039,10.19-0.035,10.015-0.026z"/>
	<path fill="#D32030" d="M10.542,21.044c-0.176,0-0.351-0.004-0.525-0.013C10.19,21.04,10.365,21.044,10.542,21.044z"/>
	<path fill="#D32030" d="M10.542,21.044c0.666,0,1.314-0.065,1.945-0.182v-1.215C11.933,20.247,11.285,21.044,10.542,21.044z"/>
</g>
<g>
	<path fill="#D71F28" d="M20.929,8.718h-6.334c0.084,1.322,0.073,2.682-0.031,3.994h6.285c0.153-0.712,0.234-1.451,0.234-2.209
		C21.083,9.894,21.029,9.298,20.929,8.718z"/>
	<path fill="#D71F28" d="M14.583,12.891c-0.058,0.623-0.263,1.107-0.363,1.696l3.567,3.568c0.353-0.335,0.684-0.692,0.987-1.073
		l-3.467-3.468L14.583,12.891z"/>
</g>
<path fill="#D32030" d="M12.486,1.311V0.143c-0.631-0.118-1.279-0.182-1.945-0.182C11.285-0.039,11.933,0.711,12.486,1.311z"/>
<g>
	<path fill="#29337A" d="M13.39,18.744c0.284-0.572,0.529-1.229,0.734-1.948l-0.734-0.734V18.744z"/>
	<path fill="#29337A" d="M14.215,4.542c-0.222-0.85-0.496-1.622-0.825-2.281v3.106L14.215,4.542z"/>
</g>
<g>
	<path fill="#FFFFFF" d="M14.787,13.095c0.013-0.126,0.022-0.254,0.033-0.383h-0.416L14.787,13.095z"/>
	<path fill="#FFFFFF" d="M13.39,5.367V2.261c-0.267-0.532-0.567-0.99-0.903-1.354v5.782L14.3,4.875
		c-0.027-0.113-0.057-0.224-0.085-0.334L13.39,5.367z"/>
	<path fill="#FFFFFF" d="M12.517,8.718h2.333c-0.045-0.721-0.118-1.43-0.219-2.114L12.517,8.718z"/>
	<path fill="#FFFFFF" d="M12.486,20.099c0.336-0.365,0.638-0.822,0.903-1.354v-2.683l0.734,0.734c0.169-0.589,0.31-1.22,0.424-1.881
		l-2.062-2.062V20.099L12.486,20.099z"/>
</g>
<path fill="#E51D35" d="M12.486,20.099v-7.245l2.062,2.062c0.101-0.587,0.181-1.196,0.239-1.82l-0.384-0.383h0.416
	c0.104-1.313,0.115-2.672,0.03-3.994h-2.333l2.114-2.114c-0.09-0.599-0.199-1.178-0.331-1.729l-1.813,1.813V0.906
	c-0.554-0.6-1.201-0.945-1.945-0.945c-0.176,0-0.351,0.004-0.527,0.013C9.497,0,8.989,0.064,8.492,0.162v8.525L2.974,3.168
	c-0.339,0.35-0.655,0.723-0.943,1.117l3.53,3.53l0.903,0.903H0.153C0.055,9.298,0,9.894,0,10.502C0,11.261,0.082,12,0.233,12.712
	H8.46l-5.307,5.307c0.347,0.343,0.717,0.66,1.109,0.951l4.229-4.23v6.104c0.497,0.099,1.005,0.162,1.523,0.188
	c0.176,0.009,0.351,0.013,0.527,0.013C11.285,21.044,11.933,20.698,12.486,20.099z"/>
</svg>
