<?xml version="1.0" encoding="utf-8"?>
<!-- Generator: Adobe Illustrator 16.0.0, SVG Export Plug-In . SVG Version: 6.00 Build 0)  -->
<!DOCTYPE svg PUBLIC "-//W3C//DTD SVG 1.1//EN" "http://www.w3.org/Graphics/SVG/1.1/DTD/svg11.dtd">
<svg version="1.1" id="katman_1" xmlns="http://www.w3.org/2000/svg" xmlns:xlink="http://www.w3.org/1999/xlink" x="0px" y="0px"
	 width="21px" height="21px" viewBox="0 0 21 21" enable-background="new 0 0 21 21" xml:space="preserve">
<circle fill="#D80027" cx="10.5" cy="10.584" r="10.416"/>
<g>
	<polygon fill="#F0F0F0" points="10.074,8.679 10.929,9.857 12.312,9.409 11.456,10.585 12.311,11.762 10.927,11.313 10.071,12.488 
		10.072,11.033 8.688,10.584 10.074,10.134 	"/>
	<path fill="#F0F0F0" d="M7.741,13.527c-1.626,0-2.944-1.318-2.944-2.943c0-1.626,1.318-2.944,2.944-2.944
		c0.507,0,0.984,0.128,1.4,0.354C8.488,7.355,7.595,6.961,6.609,6.961c-2.001,0-3.623,1.622-3.623,3.623
		c0,2,1.622,3.625,3.623,3.625c0.986,0,1.879-0.395,2.532-1.035C8.725,13.4,8.248,13.527,7.741,13.527z"/>
</g>
</svg>
